<svg id="Calque_1" data-name="Calque 1" xmlns="http://www.w3.org/2000/svg" viewBox="0 0 1454.93 636.03"><defs><style>.cls-1{fill:#36383a;}.cls-2{fill:#383838;}</style></defs><title>wirecadre</title><polygon class="cls-1" points="1102.18 30.63 1102.18 37.95 1447.6 37.95 1447.6 628.71 7.32 628.71 7.32 37.95 426.8 37.95 426.8 30.63 0 30.63 0 636.03 1454.93 636.03 1454.93 30.63 1102.18 30.63"/><circle class="cls-1" cx="1105.21" cy="33.48" r="14.06"/><path class="cls-2" d="M317.35,36.75c-3.06,8.54-8.9,12.42-16.55,11.14A14.19,14.19,0,0,1,289.15,34a14.38,14.38,0,0,1,11.54-14c6-1.11,14.12,1.74,16.65,11.13,3.36,0,6.75.11,10.13,0a8.12,8.12,0,0,0,5.63-2.78q8.12-8.66,16.31-17.26A15.86,15.86,0,0,1,361.92,5.7c3.73.12,7.46,0,11.19,0a1.85,1.85,0,0,0,2-1.12A8.22,8.22,0,0,1,384.63.28a8.52,8.52,0,0,1,6.42,8.17,8.53,8.53,0,0,1-6.36,8.22,8.22,8.22,0,0,1-9.57-4.27,1.85,1.85,0,0,0-1.94-1.18c-4.07.05-8.14,0-12.21,0a8.76,8.76,0,0,0-6.64,2.86c-4.91,5.23-9.87,10.43-14.8,15.65-.33.35-.63.74-1.1,1.3h86.51V24.13L442,34,425.1,43.71V36.87H359.8a9.61,9.61,0,0,0,.74,1c5.08,5.39,10.09,10.85,15.33,16.08a8.67,8.67,0,0,0,5,2.47c4.71.34,9.46.12,14.37.12V51h16.85V67.79H395.25V62.22c-3.73,0-7.28-.07-10.83,0s-6.81-.21-9.76-2.17a23.43,23.43,0,0,1-3.94-3.18q-8.3-8.61-16.46-17.35a8,8,0,0,0-5.82-2.76C338.11,36.71,327.77,36.75,317.35,36.75Z"/></svg>